<svg id="Capa_1" data-name="Capa 1" xmlns="http://www.w3.org/2000/svg" viewBox="0 0 225.3 192.86"><defs><style>.cls-1{fill:#fff;}</style></defs><path class="cls-1" d="M127,138.16c-2.21,3.56-4.88,5.92-9.17,5.55-4-.35-6.43-3-8.48-6.48-1.3,2.18-2.36,4.23-3.68,6.08a15.81,15.81,0,0,1-3.53,3.63,4.22,4.22,0,0,1-3.05.5,6.4,6.4,0,0,1-4.89-3.61,28.12,28.12,0,0,1-3.09,3.66c-4.33,3.67-9.18,4.42-14.54,2.45a18.71,18.71,0,0,1-6.81-3.76c-3.65-3.45-4.1-7.58-3.38-12.15.1-.63.22-1.26.35-2.07-6.72.53-13.21,1.55-19.67,1.36-3.92-.12-5.1,1.55-6.08,4.53a20.33,20.33,0,0,1-8.13,10.49,12.09,12.09,0,0,1-4.71,1.88,4.69,4.69,0,0,1-5.42-5.49c.08-.67.12-1.35.14-2,.15-5,3.37-8.66,8-10.46a32.42,32.42,0,0,1,7.27-2c.47-.07,1.08-1,1.16-1.57.41-3.28.78-6.57,1-9.87s.19-6.84.12-10.26c-.07-3-.36-5.93-.57-8.89-.42-6-.86-12-1.3-18-3.91-.88-7.55-1.58-11.11-2.56-1.44-.39-2.65-1.53-4.07-2.06a39.19,39.19,0,0,1-11.46-7.3A35.47,35.47,0,0,1,3.57,58.88C1.4,54.69.64,50.2.1,45.69a23.37,23.37,0,0,1,.69-7.83c1.08-4.67,2-9.4,4.8-13.54C7.23,21.87,8.21,19,9.81,16.5a42.31,42.31,0,0,1,4.37-5c.78-.87,1.62-1.69,2.38-2.59A10.53,10.53,0,0,1,25.92,5c.28,0,.57-.11,1,.14a29.77,29.77,0,0,1-3.06,1.25c-3.19.92-4.75,3.7-6.85,5.85C13.28,16,11.39,20.92,9.3,25.54c-3,6.71-5.29,13.8-4.63,21.37A27.08,27.08,0,0,0,10.4,61.5a35.39,35.39,0,0,0,10.88,9.74,83.06,83.06,0,0,0,9.37,3.93c1.52.6,3.11,1,4.68,1.51.72.21,1.48.3,2.44.48,0-2.15,0-4,0-5.8.25-8.83.14-17.69.93-26.46a39,39,0,0,1,7-18.36c2-2.91,5-4.21,8.27-5,4.38-1.11,8.79-.39,13.11.38,5.28.94,8.8,4.07,9.84,9.49A43.09,43.09,0,0,1,77,46.7a50.29,50.29,0,0,1-3.11,12.13A79.77,79.77,0,0,1,68,69.34a28,28,0,0,1-7.47,7.52c-4.43,3.2-9.41,4.49-14.7,4.86-3,.22-3.16.23-2.8,3.22a274.46,274.46,0,0,1,1.43,37.27c0,2.31-.41,4.61-.65,7.2,2.24-.18,4.35-.38,6.47-.51,3.89-.24,7.78-.42,11.67-.68a22.88,22.88,0,0,0,5.26-.63,5.94,5.94,0,0,0,2.63-2.36c3.28-4.76,7.79-6.07,13.16-4.65,2.84.76,5.58,1.92,8.63,3a5.35,5.35,0,0,1,1.37-.7c1.18-.31,2.27-.21,2.43,1.36.23,2.31.55,4.61.62,6.92.09,3.12.1,6.24,1.44,9.13a43.21,43.21,0,0,0,2.32,3.8c1.42-2.07,2.61-3.65,3.63-5.33,1.25-2.08,2.41-4.22,3.49-6.4a6,6,0,0,0,.37-2.3c.11-2.15,0-4.31.27-6.44a12.76,12.76,0,0,1,1.29-4.12,2.24,2.24,0,0,1,2-.76,3,3,0,0,1,1.86,1.68,11.3,11.3,0,0,1-.11,4c-.51,3.06-1.6,6.13-.27,9.17a12.27,12.27,0,0,0,2.92,4.33c3.2,2.76,5.86,2.08,7.83-2.21a18.34,18.34,0,0,0,1.83-8.35,21.4,21.4,0,0,1,1.19-7,3.47,3.47,0,0,1,2.76-1.59,2,2,0,0,1,1.8,2.48,56.78,56.78,0,0,0-1,8.06,23.79,23.79,0,0,0,1.26,7,19.07,19.07,0,0,0,2.82,5.63c1.7,2.26,4,4,7.08,3.64a8.32,8.32,0,0,0,3.37-1.13c1.59-1,3-2.36,4.52-3.41s1.14-2.09.43-3.27c-.84-1.41-1.87-2.73-2.61-4.2-2-3.95-3.44-8.08-3.29-12.61.11-3,.19-6,1.46-8.94,1.61-3.7,6.38-6.33,10.34-5.5,2.91.6,5.65,1.49,7.67,3.77a6.73,6.73,0,0,1,1.54,2.6c1.62,6.23.64,12.16-2,18a34.32,34.32,0,0,1-6.32,9.24c2.08,2.11,4.15,4.21,6.24,6.29,1.72,1.72,3.51,3.36,5.2,5.11,3.12,3.24,6.78,6,8.85,10.19a20,20,0,0,1,1.85,7.52c.46,5.74-2.19,10.28-5.23,14.51a23.89,23.89,0,0,1-7.44,6.3c-4.54,2.61-9.23,5.14-14.53,6-3.49.55-7,.89-10.51,1.34-1.27.16-2.52.5-3.79.55-5.95.23-11.6-1.24-17.22-3a44.2,44.2,0,0,1-15-8.1c-2.84-2.34-5.75-4.83-7.06-8.52a23.58,23.58,0,0,1-1.39-4.72c-.26-1.86,1.07-3.08,2.47-4a23.41,23.41,0,0,1,3.35-1.58,44.74,44.74,0,0,0-1.11,5.05c-.36,3.23,1.69,5.55,3.67,7.6a36.45,36.45,0,0,0,7.1,5.71,37,37,0,0,0,8.89,4.23,113.56,113.56,0,0,0,14.63,3.1c2.05.32,4.25-.3,6.38-.52,2.49-.27,5-.54,7.46-.88a24.51,24.51,0,0,0,9.17-3.32c2.78-1.63,5.61-3.21,8.27-5a18,18,0,0,0,6.72-8.95c1.38-3.94,1.51-8.2-1.16-12.13s-6.14-6.68-9.35-9.88c-2.25-2.24-4.38-4.6-6.59-6.88a8.92,8.92,0,0,0-2.55-2.31c-.6-.25-1.73.44-2.46,1-1.57,1.11-2.9,2.61-4.56,3.53a12.11,12.11,0,0,1-13.09-.76,13.15,13.15,0,0,1-5.65-8.24A9.71,9.71,0,0,0,127,138.16Zm-67.74-113a10.88,10.88,0,0,0-10.42,4.32c-2.77,3.64-3.94,8.11-5,12.47a53.37,53.37,0,0,0-1.59,11c-.24,7.7-.1,15.42,0,23.13a1.88,1.88,0,0,0,1.26,1.32,20.29,20.29,0,0,0,12.92-3,28.65,28.65,0,0,0,9.38-9.3,47.2,47.2,0,0,0,6.32-16,34.76,34.76,0,0,0,.88-7,50.14,50.14,0,0,0-.67-10.34c-.67-3.15-3.2-5.21-6.38-5.93A54.29,54.29,0,0,0,59.27,25.14Zm32,101.64c-2,.89-3.71,2.06-5.64,2.49-4.26.95-8.62,1.49-12.91,2.31a3,3,0,0,0-1.57,1.35,3.88,3.88,0,0,0-.54,1.92c-.11,2.78-.46,5.56,1.89,7.84a14.84,14.84,0,0,0,8.68,4c5.3.81,8.27-2.79,9.47-7.48a35,35,0,0,0,.6-7C91.38,130.32,91.31,128.43,91.31,126.78ZM152.93,136l.77.13a7.27,7.27,0,0,1,.65-1.12,28.53,28.53,0,0,0,6.51-16.15c.21-2.83-.05-5.69-3-7.27s-8.57-1.57-9.6,3.5c-.73,3.64-1,7.2.24,10.65S151.42,132.63,152.93,136ZM37.25,134.61a24.32,24.32,0,0,0-3,.52c-3.71,1.12-7.54,4.58-7.12,9.17.16,1.69,1,2.3,2.36,1.28a27.07,27.07,0,0,0,7.42-8.91A7.68,7.68,0,0,0,37.25,134.61ZM74.65,127l8.9-1.31C80.86,123.28,76.28,123.93,74.65,127Z" transform="translate(0 -5)"/><path class="cls-1" d="M179.27,153c1.77-3.48,4.78-4.51,7.83-5.22,4.74-1.12,9.54-2,14.31-2.93,6.62-1.34,13.23-2.71,19.86-4a5.6,5.6,0,0,1,2.7.14c.58.19,1.35,1,1.33,1.45a2.23,2.23,0,0,1-1.23,1.69,61.18,61.18,0,0,1-6,1.41c-2.89.6-5.78,1.15-8.67,1.71l-8.08,1.59-8.57,1.71c-2,.39-3.95.71-5.89,1.21-1,.25-1.83,1.05-2.8,1.19A37.54,37.54,0,0,1,179.27,153Z" transform="translate(0 -5)"/></svg>