<svg id="Capa_1" data-name="Capa 1" xmlns="http://www.w3.org/2000/svg" viewBox="0 0 611.42 523.39"><defs><style>.cls-1{fill:#fff;}</style></defs><path class="cls-1" d="M345,361.38c-6,9.65-13.25,16.05-24.9,15.05-11-.95-17.46-8.08-23-17.59-3.52,5.91-6.38,11.48-10,16.51a43,43,0,0,1-9.56,9.85c-2.07,1.5-5.69,1.93-8.29,1.36-5.51-1.2-10.54-3.75-13.25-9.79-2.88,3.46-5.2,7.21-8.41,9.93-11.74,9.94-24.9,12-39.46,6.63-6.75-2.48-13-5.05-18.46-10.2-9.91-9.36-11.15-20.58-9.18-33,.27-1.72.58-3.44.95-5.62-18.24,1.43-35.86,4.2-53.38,3.67-10.63-.32-13.85,4.23-16.49,12.31-4,12.08-11.81,21.37-22.07,28.47a32.76,32.76,0,0,1-12.78,5.08C68.39,395.5,60.76,389,62,379.19c.23-1.81.34-3.65.4-5.47.4-13.43,9.14-23.51,21.56-28.39a88.55,88.55,0,0,1,19.73-5.53c1.27-.19,2.94-2.68,3.14-4.26,1.11-8.9,2.12-17.84,2.58-26.79.48-9.27.53-18.57.32-27.85-.18-8-1-16.07-1.53-24.11-1.16-16.29-2.35-32.57-3.53-48.75-10.62-2.39-20.49-4.3-30.16-6.95-3.9-1.06-7.19-4.15-11-5.6C51.67,191,41.61,183.65,32.33,175.68S15.79,157.47,10,146.23,2,122.68.57,110.43c-.82-6.94.27-14.37,1.86-21.26,2.93-12.68,5.48-25.51,13-36.74,4.46-6.65,7.12-14.49,11.46-21.23,3.22-5,7.83-9.16,11.85-13.66,2.12-2.37,4.42-4.6,6.46-7C51.88,2.57,60.43-.62,70.62.1c.76,0,1.54-.29,2.62.39a79.3,79.3,0,0,1-8.32,3.39C56.28,6.37,52.05,13.93,46.33,19.74c-10,10.17-15.13,23.46-20.8,36C17.28,74,11.18,93.18,13,113.75a73.42,73.42,0,0,0,15.56,39.58c8.29,10.66,17.73,20,29.53,26.43,8,4.37,16.86,7.3,25.42,10.66,4.13,1.63,8.43,2.85,12.69,4.11,2,.57,4,.8,6.63,1.31,0-5.83-.12-10.8,0-15.76.69-24,.38-48,2.53-71.81C107,90.34,114,73.54,124.28,58.46c5.37-7.89,13.65-11.43,22.43-13.66,11.89-3,23.87-1.06,35.6,1,14.33,2.55,23.87,11.05,26.71,25.76a117.51,117.51,0,0,1,.23,41.57c-1.84,11.31-3.91,22.55-8.45,32.93-4.36,9.94-10.16,19.33-16,28.53-5.2,8.18-12.33,14.64-20.28,20.39-12,8.68-25.52,12.2-39.88,13.21-8.15.57-8.58.62-7.61,8.71,4,33.62,4.49,67.37,3.89,101.15-.11,6.26-1.11,12.5-1.77,19.53,6.07-.48,11.8-1,17.55-1.37,10.56-.66,21.13-1.14,31.68-1.84,4.8-.32,9.77-.32,14.27-1.73,2.79-.88,5.35-3.78,7.13-6.38,8.92-12.94,21.16-16.48,35.72-12.62,7.72,2,15.14,5.21,23.44,8.13a14,14,0,0,1,3.71-1.9c3.19-.83,6.15-.56,6.58,3.7.63,6.26,1.5,12.51,1.69,18.78.25,8.46.27,16.92,3.91,24.77,1.46,3.16,3.63,6,6.31,10.32,3.84-5.62,7.07-9.9,9.83-14.47,3.4-5.65,6.55-11.46,9.48-17.36.9-1.81.9-4.14,1-6.26.29-5.82.06-11.7.75-17.48a34.11,34.11,0,0,1,3.47-11.16c.69-1.35,3.91-2.53,5.46-2.06,2,.61,4.68,2.69,5.05,4.55a30.36,30.36,0,0,1-.29,10.78c-1.38,8.29-4.33,16.64-.73,24.88,1.88,4.28,4.45,8.76,7.91,11.75,8.68,7.49,15.9,5.64,21.26-6a49.94,49.94,0,0,0,5-22.66c-.21-6.3,1.3-12.86,3.24-18.93.67-2.11,4.88-4.29,7.48-4.3,3.15,0,5.45,2.79,4.88,6.72-1.06,7.29-2.81,14.59-2.79,21.88a63.85,63.85,0,0,0,3.4,18.88,51.91,51.91,0,0,0,7.67,15.29c4.62,6.13,10.81,10.8,19.22,9.87a22.18,22.18,0,0,0,9.13-3.06c4.32-2.7,8-6.4,12.26-9.26,4-2.7,3.1-5.68,1.19-8.87-2.3-3.84-5.08-7.42-7.1-11.4-5.43-10.73-9.34-21.93-8.92-34.21.28-8.26.52-16.39,4-24.28,4.37-10,17.31-17.15,28.05-14.93,7.9,1.64,15.33,4.05,20.84,10.26a18.23,18.23,0,0,1,4.18,7c4.38,16.92,1.73,33-5.58,48.77a93,93,0,0,1-17.16,25.1c5.66,5.71,11.27,11.42,16.95,17.07,4.66,4.64,9.52,9.1,14.09,13.84,8.49,8.8,18.41,16.39,24,27.67,3.2,6.42,4.43,13.1,5,20.4,1.25,15.59-5.93,27.91-14.18,39.37-5,7-12.63,12.74-20.2,17.1-12.31,7.1-25,14-39.42,16.21-9.47,1.48-19,2.41-28.52,3.64-3.44.44-6.85,1.34-10.3,1.48-16.14.64-31.48-3.35-46.72-8.11a119.81,119.81,0,0,1-40.76-22c-7.7-6.34-15.61-13.11-19.17-23.11-1.5-4.2-3.16-8.46-3.77-12.83-.71-5,2.92-8.34,6.7-10.88,2.57-1.73,5.65-2.69,9.11-4.28-1.14,5-2.55,9.29-3,13.69-1,8.79,4.59,15.09,10,20.65A100,100,0,0,0,302.31,492c7.55,4.66,15.66,9,24.12,11.48a312.58,312.58,0,0,0,39.7,8.4c5.56.86,11.54-.8,17.31-1.42,6.76-.72,13.52-1.47,20.26-2.38a66.78,66.78,0,0,0,24.88-9c7.55-4.43,15.21-8.7,22.45-13.59,8.79-5.93,14.9-14.87,18.22-24.3,3.76-10.68,4.1-22.24-3.13-32.91-7.06-10.41-16.68-18.12-25.39-26.82-6.1-6.09-11.89-12.47-17.88-18.67-2.18-2.26-4.21-5.16-6.92-6.27-1.62-.67-4.7,1.19-6.66,2.57-4.27,3-7.88,7.1-12.4,9.59-12.09,6.64-24.72,5.19-35.5-2.07A35.68,35.68,0,0,1,346,364.22,23.76,23.76,0,0,0,345,361.38ZM161.12,54.67c-11.67-1.36-21.38,2.66-28.27,11.72-7.51,9.87-10.68,22-13.63,33.82a143.05,143.05,0,0,0-4.32,29.93c-.65,20.91-.27,41.85-.06,62.78,0,1.26,2.1,3.45,3.41,3.6,12.62,1.45,24.35-1.83,35.07-8.2,10.51-6.24,18.88-15.08,25.46-25.24,8.54-13.22,13.87-27.94,17.15-43.31a93.89,93.89,0,0,0,2.39-19.06c0-9.38.08-19-1.84-28.07-1.8-8.55-8.66-14.13-17.29-16.09C173.33,55.22,167.16,55.25,161.12,54.67Zm87,275.83c-5.29,2.39-10.06,5.56-15.29,6.73-11.57,2.59-23.39,4.06-35,6.29-1.63.31-3.27,2.13-4.27,3.67A10.7,10.7,0,0,0,192,352.4c-.3,7.53-1.23,15.07,5.12,21.27,6.69,6.52,14.36,9.34,23.57,10.74,14.38,2.19,22.45-7.57,25.69-20.3,1.55-6.05,1.34-12.58,1.64-18.91C248.27,340.08,248.08,335,248.08,330.5ZM415.3,355.62l2.1.34a21.69,21.69,0,0,1,1.76-3,77.33,77.33,0,0,0,17.66-43.82c.58-7.68-.12-15.45-8.24-19.74s-23.25-4.26-26,9.52c-2,9.88-2.76,19.52.64,28.89S411.22,346.35,415.3,355.62Zm-313.91-3.89a66.65,66.65,0,0,0-8.23,1.41C83.09,356.2,72.69,365.57,73.84,378c.43,4.59,2.84,6.25,6.39,3.48a73,73,0,0,0,20.14-24.2C101.14,355.82,101,353.88,101.39,351.73Zm101.49-20.64L227,327.52C219.71,321,207.3,322.75,202.88,331.09Z" transform="translate(-0.29)"/><path class="cls-1" d="M486.79,401.65c4.81-9.46,13-12.24,21.24-14.18,12.86-3,25.89-5.32,38.84-8,18-3.64,35.91-7.36,53.9-10.86a15.14,15.14,0,0,1,7.33.39c1.56.52,3.65,2.61,3.61,3.94a6.07,6.07,0,0,1-3.34,4.57A166.49,166.49,0,0,1,592,381.41c-7.83,1.61-15.69,3.1-23.53,4.64l-21.93,4.31L523.33,395c-5.34,1.07-10.73,1.94-16,3.29-2.64.67-5,2.86-7.61,3.23C495.64,402.06,491.42,401.65,486.79,401.65Z" transform="translate(-0.29)"/></svg>